<svg width="140" height="24" fill="#d42e2e" xmlns="http://www.w3.org/2000/svg"><path d="M9.486 24c-1.841 0-3.628-.243-5.359-.73C2.42 22.763 1.043 22.11 0 21.316l1.83-4.044c1 .729 2.186 1.315 3.562 1.757 1.376.442 2.752.663 4.128.663 1.53 0 2.663-.221 3.395-.663.732-.464 1.098-1.072 1.098-1.824 0-.552-.222-1.005-.665-1.359-.422-.375-.977-.674-1.665-.895-.665-.22-1.575-.464-2.73-.729-1.774-.42-3.228-.84-4.36-1.26a7.21 7.21 0 0 1-2.929-2.022C.865 10.011.466 8.773.466 7.227c0-1.349.366-2.564 1.098-3.647C2.297 2.475 3.395 1.602 4.86.961 6.347.321 8.155 0 10.285 0c1.487 0 2.94.177 4.36.53 1.421.354 2.664.862 3.729 1.525l-1.665 4.078c-2.152-1.216-4.304-1.824-6.457-1.824-1.509 0-2.63.243-3.362.73-.71.486-1.065 1.127-1.065 1.922 0 .796.41 1.393 1.232 1.79.843.376 2.119.752 3.827 1.127 1.776.42 3.23.84 4.36 1.26a7.092 7.092 0 0 1 2.897 1.99c.82.905 1.231 2.132 1.231 3.679a6.328 6.328 0 0 1-1.131 3.646c-.733 1.083-1.842 1.945-3.329 2.586-1.487.64-3.295.961-5.426.961zM27.725 4.773h-7.456V.398h20.304v4.375h-7.456v18.83h-5.392V4.772zM53.603 24c-3.329 0-5.925-.917-7.79-2.751-1.84-1.835-2.762-4.453-2.762-7.857V.398h5.392v12.795c0 4.155 1.731 6.232 5.193 6.232 1.687 0 2.974-.497 3.861-1.491.888-1.017 1.332-2.597 1.332-4.74V.397h5.325v12.994c0 3.404-.932 6.022-2.796 7.857C59.517 23.083 56.931 24 53.603 24zM69.65.398h10.584c2.53 0 4.76.486 6.69 1.458 1.954.95 3.463 2.299 4.528 4.045 1.087 1.745 1.63 3.779 1.63 6.099 0 2.32-.543 4.354-1.63 6.1-1.065 1.745-2.574 3.104-4.527 4.077-1.93.95-4.16 1.425-6.69 1.425H69.65V.398zm10.318 18.795c2.33 0 4.183-.64 5.559-1.922 1.398-1.304 2.097-3.061 2.097-5.271s-.7-3.956-2.097-5.238c-1.376-1.303-3.229-1.955-5.559-1.955h-4.926v14.386h4.926zM112.161 23.602l-4.493-6.464h-4.96v6.464h-5.392V.398H107.4c2.064 0 3.85.342 5.359 1.027 1.532.685 2.708 1.658 3.529 2.918.821 1.26 1.231 2.75 1.231 4.475 0 1.723-.421 3.215-1.265 4.475-.821 1.237-1.997 2.188-3.528 2.85l5.226 7.46h-5.792zm-.1-14.784c0-1.304-.421-2.299-1.264-2.984-.844-.707-2.075-1.06-3.695-1.06h-4.394v8.088h4.394c1.62 0 2.851-.354 3.695-1.06.843-.708 1.264-1.703 1.264-2.984zM140 19.293v4.31h-18.041V.397h17.608v4.31h-12.249v5.038h10.818v4.177h-10.818v5.37H140z"/></svg>
